<svg width="16" height="16" viewBox="0 0 16 16" fill="none" xmlns="http://www.w3.org/2000/svg">
<g clip-path="url(#clip0_7573_597)">
<path d="M2.51809 7.96125C1.88607 6.85921 1.58091 5.95933 1.3969 5.04715C1.12476 3.69806 1.74755 2.38021 2.77926 1.53932C3.21531 1.18393 3.71516 1.30535 3.97301 1.76794L4.55513 2.81228C5.01653 3.64005 5.24724 4.05394 5.20148 4.49274C5.15572 4.93153 4.84459 5.28892 4.22232 6.00368L2.51809 7.96125ZM2.51809 7.96125C3.79735 10.1919 5.8049 12.2005 8.0381 13.4813M8.0381 13.4813C9.14014 14.1133 10.04 14.4184 10.9522 14.6024C12.3013 14.8746 13.6191 14.2518 14.46 13.2201C14.8154 12.784 14.694 12.2842 14.2314 12.0263L13.1871 11.4442C12.3593 10.9828 11.9454 10.7521 11.5066 10.7979C11.0678 10.8436 10.7104 11.1548 9.99567 11.777L8.0381 13.4813Z" stroke="black" stroke-width="1.5" stroke-linejoin="round"/>
</g>
<defs>
<clipPath id="clip0_7573_597">
<rect width="16" height="16" fill="white"/>
</clipPath>
</defs>
</svg>
