<svg width="17" height="16" viewBox="0 0 17 16" fill="none" xmlns="http://www.w3.org/2000/svg">
<g clip-path="url(#clip0_7785_1928)">
<path d="M2.67727 7.96125C2.04525 6.85921 1.74009 5.95933 1.55608 5.04715C1.28394 3.69806 1.90673 2.38021 2.93844 1.53932C3.37449 1.18393 3.87434 1.30535 4.13219 1.76794L4.71431 2.81228C5.17571 3.64005 5.40642 4.05394 5.36066 4.49274C5.3149 4.93153 5.00377 5.28892 4.3815 6.00368L2.67727 7.96125ZM2.67727 7.96125C3.95652 10.1919 5.96408 12.2005 8.19728 13.4813M8.19728 13.4813C9.29932 14.1133 10.1992 14.4184 11.1114 14.6024C12.4605 14.8746 13.7783 14.2518 14.6192 13.2201C14.9746 12.784 14.8532 12.2842 14.3906 12.0263L13.3462 11.4442C12.5185 10.9828 12.1046 10.7521 11.6658 10.7979C11.227 10.8436 10.8696 11.1548 10.1549 11.777L8.19728 13.4813Z" stroke="white" stroke-width="1.5" stroke-linejoin="round"/>
</g>
<defs>
<clipPath id="clip0_7785_1928">
<rect width="16" height="16" fill="white" transform="translate(0.158203)"/>
</clipPath>
</defs>
</svg>
