<svg width="24" height="24" viewBox="0 0 24 24" fill="none" xmlns="http://www.w3.org/2000/svg">
<path d="M4.37988 2H19.6199V3C19.6199 3.75852 19.3186 4.48597 18.7822 5.02233C18.2459 5.55868 17.5184 5.86 16.7599 5.86H7.23988C6.48136 5.86 5.75391 5.55868 5.21756 5.02233C4.6812 4.48597 4.37988 3.75852 4.37988 3V2Z" stroke="white" stroke-width="1.5" stroke-miterlimit="10"/>
<path d="M12.0001 22L5.33008 14.38L7.24008 5.81H16.7601L18.6701 14.38L12.0001 22Z" stroke="white" stroke-width="1.5" stroke-miterlimit="10"/>
<path d="M11.9998 12.47C12.5245 12.47 12.9498 12.0447 12.9498 11.52C12.9498 10.9953 12.5245 10.57 11.9998 10.57C11.4751 10.57 11.0498 10.9953 11.0498 11.52C11.0498 12.0447 11.4751 12.47 11.9998 12.47Z" stroke="white" stroke-width="1.5" stroke-miterlimit="10"/>
<path d="M12 22V12.48" stroke="white" stroke-width="1.5" stroke-miterlimit="10"/>
</svg>
