<svg width="16" height="16" viewBox="0 0 16 16" fill="none" xmlns="http://www.w3.org/2000/svg">
<g clip-path="url(#clip0_7578_1237)">
<path d="M2.51809 7.96222C1.88607 6.86019 1.58091 5.9603 1.3969 5.04813C1.12476 3.69904 1.74755 2.38119 2.77926 1.5403C3.21531 1.18491 3.71516 1.30633 3.97301 1.76892L4.55513 2.81326C5.01653 3.64103 5.24724 4.05491 5.20148 4.49371C5.15572 4.93251 4.84459 5.28989 4.22232 6.00465L2.51809 7.96222ZM2.51809 7.96222C3.79735 10.1928 5.8049 12.2015 8.0381 13.4822M8.0381 13.4822C9.14014 14.1143 10.04 14.4194 10.9522 14.6034C12.3013 14.8756 13.6191 14.2528 14.46 13.2211C14.8154 12.785 14.694 12.2852 14.2314 12.0273L13.1871 11.4452C12.3593 10.9838 11.9454 10.7531 11.5066 10.7988C11.0678 10.8446 10.7104 11.1557 9.99567 11.778L8.0381 13.4822Z" stroke="#323232" stroke-linejoin="round"/>
<path d="M9.33301 4.55522C10.2818 4.95814 11.0422 5.7185 11.4451 6.66732M9.76903 1.33398C12.1272 2.01449 13.9857 3.873 14.6663 6.23107" stroke="#B0A9F9" stroke-linecap="round"/>
</g>
<defs>
<clipPath id="clip0_7578_1237">
<rect width="16" height="16" fill="white"/>
</clipPath>
</defs>
</svg>
