<svg width="16" height="16" viewBox="0 0 16 16" fill="none" xmlns="http://www.w3.org/2000/svg">
<path d="M1.33301 3.33203L5.94169 5.94844C7.62545 6.90434 8.3739 6.90434 10.0577 5.94844L14.6663 3.33203" stroke="#323232" stroke-linejoin="round"/>
<path d="M6.99967 12.9993C6.68881 12.9953 6.37755 12.9893 6.06556 12.9815C3.96656 12.9287 2.91706 12.9023 2.16298 12.145C1.40889 11.3876 1.3871 10.3651 1.34352 8.32026C1.3295 7.66276 1.3295 7.00914 1.34352 6.35163C1.3871 4.30677 1.40889 3.28433 2.16298 2.52694C2.91706 1.76955 3.96656 1.74317 6.06556 1.6904C7.35921 1.65788 8.64014 1.65789 9.93379 1.69041C12.0328 1.74318 13.0823 1.76956 13.8364 2.52695C14.5905 3.28434 14.6122 4.30678 14.6558 6.35164C14.6623 6.65436 14.6658 6.79701 14.6663 6.99935" stroke="#323232" stroke-linecap="round" stroke-linejoin="round"/>
<path opacity="0.4" d="M12.666 11.332C12.666 11.8843 12.2183 12.332 11.666 12.332C11.1137 12.332 10.666 11.8843 10.666 11.332C10.666 10.7797 11.1137 10.332 11.666 10.332C12.2183 10.332 12.666 10.7797 12.666 11.332ZM12.666 11.332V11.6654C12.666 12.2176 13.1137 12.6654 13.666 12.6654C14.2183 12.6654 14.666 12.2176 14.666 11.6654V11.332C14.666 9.67518 13.3229 8.33203 11.666 8.33203C10.0092 8.33203 8.66602 9.67518 8.66602 11.332C8.66602 12.9889 10.0092 14.332 11.666 14.332" stroke="#323232" stroke-linecap="round" stroke-linejoin="round"/>
</svg>
