<svg width="16" height="16" viewBox="0 0 16 16" fill="none" xmlns="http://www.w3.org/2000/svg">
<path d="M1.66699 8.0013C1.66699 5.01574 1.66699 3.52296 2.59449 2.59546C3.52198 1.66797 5.01476 1.66797 8.00033 1.66797C10.9859 1.66797 12.4787 1.66797 13.4062 2.59546C14.3337 3.52296 14.3337 5.01574 14.3337 8.0013C14.3337 10.9869 14.3337 12.4796 13.4062 13.4071C12.4787 14.3346 10.9859 14.3346 8.00033 14.3346C5.01476 14.3346 3.52198 14.3346 2.59449 13.4071C1.66699 12.4796 1.66699 10.9869 1.66699 8.0013Z" stroke="#323232" stroke-linejoin="round"/>
<path opacity="0.4" d="M11 8C11 9.65685 9.65685 11 8 11C6.34315 11 5 9.65685 5 8C5 6.34315 6.34315 5 8 5C9.65685 5 11 6.34315 11 8Z" stroke="#323232"/>
<path opacity="0.4" d="M11.6719 4.33398L11.6659 4.33398" stroke="#323232" stroke-linecap="round" stroke-linejoin="round"/>
</svg>
