<svg width="17" height="13" viewBox="0 0 17 13" fill="none" xmlns="http://www.w3.org/2000/svg">
<path d="M6.488 2.352C6.488 2.352 6.36 2.56 6.104 2.976C5.848 3.36 5.544 3.856 5.192 4.464C4.84 5.04 4.536 5.6 4.28 6.144C4.568 6.208 4.92 6.416 5.336 6.768C5.784 7.12 6.168 7.52 6.488 7.968C6.84 8.416 7.016 8.8 7.016 9.12C7.016 10.08 6.696 10.848 6.056 11.424C5.416 12 4.616 12.288 3.656 12.288C2.76 12.288 1.96 11.952 1.256 11.28C0.584 10.608 0.248 9.792 0.248 8.832C0.248 7.904 0.456 6.976 0.872 6.048C1.288 5.12 1.784 4.272 2.36 3.504C2.968 2.736 3.496 2.112 3.944 1.632C4.424 1.152 4.696 0.879999 4.76 0.815998L6.488 2.352ZM15.656 2.352C15.656 2.352 15.512 2.56 15.224 2.976C14.968 3.36 14.664 3.856 14.312 4.464C13.96 5.04 13.656 5.6 13.4 6.144C13.72 6.208 14.088 6.416 14.504 6.768C14.952 7.12 15.336 7.52 15.656 7.968C15.976 8.416 16.136 8.8 16.136 9.12C16.136 10.08 15.816 10.848 15.176 11.424C14.568 12 13.784 12.288 12.824 12.288C11.928 12.288 11.128 11.952 10.424 11.28C9.72 10.608 9.368 9.792 9.368 8.832C9.368 7.904 9.576 6.976 9.992 6.048C10.44 5.12 10.952 4.272 11.528 3.504C12.136 2.736 12.664 2.112 13.112 1.632C13.592 1.152 13.864 0.879999 13.928 0.815998L15.656 2.352Z" fill="#4169E1"/>
</svg>
