<svg width="120" height="24" viewBox="0 0 120 24" fill="none" xmlns="http://www.w3.org/2000/svg">
<g clip-path="url(#clip0_7573_776)">
<path d="M12.0003 17.5198L16.1503 20.0298C16.9103 20.4898 17.8403 19.8098 17.6403 18.9498L16.5403 14.2298L20.2103 11.0498C20.8803 10.4698 20.5203 9.36977 19.6403 9.29977L14.8103 8.88977L12.9203 4.42977C12.5803 3.61977 11.4203 3.61977 11.0803 4.42977L9.19032 8.87977L4.36032 9.28977C3.48032 9.35977 3.12032 10.4598 3.79032 11.0398L7.46032 14.2198L6.36032 18.9398C6.16032 19.7998 7.09032 20.4798 7.85032 20.0198L12.0003 17.5198Z" fill="#FFCC47"/>
<path d="M84.0003 17.5198L88.1503 20.0298C88.9103 20.4898 89.8403 19.8098 89.6403 18.9498L88.5403 14.2298L92.2103 11.0498C92.8803 10.4698 92.5203 9.36977 91.6403 9.29977L86.8103 8.88977L84.9203 4.42977C84.5803 3.61977 83.4203 3.61977 83.0803 4.42977L81.1903 8.87977L76.3603 9.28977C75.4803 9.35977 75.1203 10.4598 75.7903 11.0398L79.4603 14.2198L78.3603 18.9398C78.1603 19.7998 79.0903 20.4798 79.8503 20.0198L84.0003 17.5198Z" fill="#FFCC47"/>
<path d="M60.0003 17.5198L64.1503 20.0298C64.9103 20.4898 65.8403 19.8098 65.6403 18.9498L64.5403 14.2298L68.2103 11.0498C68.8803 10.4698 68.5203 9.36977 67.6403 9.29977L62.8103 8.88977L60.9203 4.42977C60.5803 3.61977 59.4203 3.61977 59.0803 4.42977L57.1903 8.87977L52.3603 9.28977C51.4803 9.35977 51.1203 10.4598 51.7903 11.0398L55.4603 14.2198L54.3603 18.9398C54.1603 19.7998 55.0903 20.4798 55.8503 20.0198L60.0003 17.5198Z" fill="#FFCC47"/>
<path d="M36.0003 17.5198L40.1503 20.0298C40.9103 20.4898 41.8403 19.8098 41.6403 18.9498L40.5403 14.2298L44.2103 11.0498C44.8803 10.4698 44.5203 9.36977 43.6403 9.29977L38.8103 8.88977L36.9203 4.42977C36.5803 3.61977 35.4203 3.61977 35.0803 4.42977L33.1903 8.87977L28.3603 9.28977C27.4803 9.35977 27.1203 10.4598 27.7903 11.0398L31.4603 14.2198L30.3603 18.9398C30.1603 19.7998 31.0903 20.4798 31.8503 20.0198L36.0003 17.5198Z" fill="#FFCC47"/>
<path d="M108 17.5198L112.15 20.0298C112.91 20.4898 113.84 19.8098 113.64 18.9498L112.54 14.2298L116.21 11.0498C116.88 10.4698 116.52 9.36977 115.64 9.29977L110.81 8.88977L108.92 4.42977C108.58 3.61977 107.42 3.61977 107.08 4.42977L105.19 8.87977L100.36 9.28977C99.4803 9.35977 99.1203 10.4598 99.7903 11.0398L103.46 14.2198L102.36 18.9398C102.16 19.7998 103.09 20.4798 103.85 20.0198L108 17.5198Z" fill="#FFCC47"/>
</g>
<defs>
<clipPath id="clip0_7573_776">
<rect width="120" height="24" fill="white"/>
</clipPath>
</defs>
</svg>
