<svg width="48" height="47" viewBox="0 0 48 47" fill="none" xmlns="http://www.w3.org/2000/svg">
<rect width="48" height="47" rx="23.5" fill="#F0E6FF"/>
<path d="M17.1591 32V28.5909L23.6705 23.2045C24.1023 22.8466 24.4716 22.5114 24.7784 22.1989C25.0909 21.8807 25.3295 21.554 25.4943 21.2188C25.6648 20.8835 25.75 20.5114 25.75 20.1023C25.75 19.6534 25.6534 19.2699 25.4602 18.9517C25.2727 18.6335 25.0114 18.3892 24.6761 18.2188C24.3409 18.0426 23.9545 17.9545 23.517 17.9545C23.0795 17.9545 22.6932 18.0426 22.358 18.2188C22.0284 18.3949 21.7727 18.6534 21.5909 18.9943C21.4091 19.3352 21.3182 19.75 21.3182 20.2386H16.8182C16.8182 19.0114 17.0938 17.9545 17.6449 17.0682C18.196 16.1818 18.9744 15.5 19.9801 15.0227C20.9858 14.5455 22.1648 14.3068 23.517 14.3068C24.9148 14.3068 26.125 14.5312 27.1477 14.9801C28.1761 15.4233 28.9688 16.0483 29.5256 16.8551C30.0881 17.6619 30.3693 18.608 30.3693 19.6932C30.3693 20.3636 30.2301 21.0312 29.9517 21.696C29.6733 22.3551 29.1733 23.0852 28.4517 23.8864C27.7301 24.6875 26.7045 25.642 25.375 26.75L23.7386 28.1136V28.2159H30.5568V32H17.1591Z" fill="#4169E1"/>
</svg>
