<svg width="49" height="47" viewBox="0 0 49 47" fill="none" xmlns="http://www.w3.org/2000/svg">
<rect width="49" height="47" rx="23.5" fill="#F0E6FF"/>
<path d="M23.9773 32.2386C22.6023 32.2386 21.3807 32.0028 20.3125 31.5312C19.25 31.054 18.4148 30.3977 17.8068 29.5625C17.1989 28.7273 16.892 27.767 16.8864 26.6818H21.6591C21.6648 27.017 21.767 27.3182 21.9659 27.5852C22.1705 27.8466 22.4489 28.0511 22.8011 28.1989C23.1534 28.3466 23.5568 28.4205 24.0114 28.4205C24.4489 28.4205 24.8352 28.3437 25.1705 28.1903C25.5057 28.0312 25.767 27.8125 25.9545 27.5341C26.142 27.2557 26.233 26.9375 26.2273 26.5795C26.233 26.2273 26.125 25.9148 25.9034 25.642C25.6875 25.3693 25.3835 25.1562 24.9915 25.0028C24.5994 24.8494 24.1477 24.7727 23.6364 24.7727H21.8636V21.5H23.6364C24.108 21.5 24.5227 21.4233 24.8807 21.2699C25.2443 21.1165 25.5256 20.9034 25.7244 20.6307C25.929 20.358 26.0284 20.0455 26.0227 19.6932C26.0284 19.3523 25.946 19.0511 25.7756 18.7898C25.6051 18.5284 25.3665 18.3239 25.0597 18.1761C24.7585 18.0284 24.4091 17.9545 24.0114 17.9545C23.5795 17.9545 23.1932 18.0312 22.8523 18.1847C22.517 18.3381 22.2528 18.5511 22.0597 18.8239C21.8665 19.0966 21.767 19.4091 21.7614 19.7614H17.2273C17.233 18.6932 17.5256 17.75 18.1051 16.9318C18.6903 16.1136 19.4915 15.4716 20.5085 15.0057C21.5256 14.5398 22.6932 14.3068 24.0114 14.3068C25.3011 14.3068 26.4403 14.5256 27.429 14.9631C28.4233 15.4006 29.1989 16.0028 29.7557 16.7699C30.3182 17.5312 30.5966 18.4034 30.5909 19.3864C30.6023 20.3636 30.267 21.1648 29.5852 21.7898C28.9091 22.4148 28.0511 22.7841 27.0114 22.8977V23.0341C28.4205 23.1875 29.4801 23.6193 30.1903 24.3295C30.9006 25.0341 31.25 25.9205 31.2386 26.9886C31.2443 28.0114 30.9375 28.9176 30.3182 29.7074C29.7045 30.4972 28.8494 31.1165 27.7528 31.5653C26.6619 32.0142 25.4034 32.2386 23.9773 32.2386Z" fill="#6C60F3"/>
</svg>
